<?xml version="1.0" encoding="UTF-8" standalone="no"?>
<!-- Created with Inkscape (http://www.inkscape.org/) -->

<svg
   width="40mm"
   height="40mm"
   viewBox="0 0 151.1811 151.1811"
   version="1.1"
   id="svg1"
   inkscape:version="1.4.3 (0d15f75042, 2025-12-25)"
   sodipodi:docname="icon.svg"
   xmlns:inkscape="http://www.inkscape.org/namespaces/inkscape"
   xmlns:sodipodi="http://sodipodi.sourceforge.net/DTD/sodipodi-0.dtd"
   xmlns="http://www.w3.org/2000/svg"
   xmlns:svg="http://www.w3.org/2000/svg">
  <sodipodi:namedview
     id="namedview1"
     pagecolor="#ffffff"
     bordercolor="#000000"
     borderopacity="0.25"
     inkscape:showpageshadow="2"
     inkscape:pageopacity="0.0"
     inkscape:pagecheckerboard="0"
     inkscape:deskcolor="#d1d1d1"
     inkscape:document-units="mm"
     inkscape:zoom="2.7580808"
     inkscape:cx="40.245376"
     inkscape:cy="45.68394"
     inkscape:window-width="1646"
     inkscape:window-height="1025"
     inkscape:window-x="0"
     inkscape:window-y="0"
     inkscape:window-maximized="1"
     inkscape:current-layer="text16" />
  <defs
     id="defs1" />
  <g
     inkscape:label="Layer 1"
     inkscape:groupmode="layer"
     id="layer1"
     transform="translate(-105.87072,-439.20438)">
    <path
       sodipodi:type="star"
       style="fill:#ff00ff;stroke:#0000ff;stroke-width:10.5394;stroke-dasharray:none;stroke-dashoffset:11.3386"
       id="path8"
       inkscape:flatsided="true"
       sodipodi:sides="6"
       sodipodi:cx="192.52518"
       sodipodi:cy="516.0694"
       sodipodi:r1="66.665741"
       sodipodi:r2="83.587151"
       sodipodi:arg1="-0.80078156"
       sodipodi:arg2="-0.27718279"
       inkscape:rounded="0"
       inkscape:randomized="0"
       d="m 238.93426,468.21004 18.24288,64.12112 -46.40908,47.85936 -64.65196,-16.26176 -18.24288,-64.12112 46.40907,-47.85936 z"
       transform="matrix(1.0709667,0,0,1.0807075,-24.72678,-42.925133)" />
    <g
       id="text16"
       style="font-size:10.0269px;font-family:Roboto;-inkscape-font-specification:Roboto;stroke:#777777;stroke-dashoffset:11.3386"
       aria-label="^              ^&#10;   o       o  &#10;/_   =  .  =  _\&#10;  /_    -   _\&#10;         &#10;  _ (       ) _&#10;   (         )&#10;     =     = ">
      <path
         id="path9"
         style="font-weight:900;font-family:'SauceCodePro Nerd Font';-inkscape-font-specification:'SauceCodePro Nerd Font Heavy';stroke:none"
         d="m 136.30859,467.68945 c -0.87481,2.24617 -1.74959,4.49235 -2.625,6.73828 3.44792,0 6.89584,0 10.34375,0 -1.0402,-2.67088 -2.08263,-5.34091 -3.12304,-8.01171 -1.36654,0 -2.73308,0 -4.09961,0 -0.16537,0.42447 -0.33073,0.84895 -0.4961,1.27343 z m 90.24219,0 c -0.87482,2.24617 -1.74959,4.49235 -2.625,6.73828 3.44792,0 6.89583,0 10.34375,0 -1.04021,-2.67088 -2.08263,-5.34091 -3.12305,-8.01171 -1.36653,0 -2.73307,0 -4.0996,0 -0.16537,0.42447 -0.33073,0.84895 -0.4961,1.27343 z" />
      <path
         id="path10"
         style="font-weight:900;font-family:'SauceCodePro Nerd Font';-inkscape-font-specification:'SauceCodePro Nerd Font Heavy';stroke:none"
         d="m 156.7832,480.86719 c -2.38381,-0.007 -4.5184,2.10813 -4.46289,4.50586 -0.15538,2.27313 1.64657,4.42526 3.9043,4.69336 2.42561,0.42366 4.98587,-1.41899 5.22519,-3.89912 0.338,-2.11321 -0.92708,-4.37186 -2.99082,-5.03448 -0.53594,-0.19238 -1.10722,-0.28209 -1.67578,-0.26562 z m 48.12891,0 c -2.38381,-0.007 -4.5184,2.10813 -4.46289,4.50586 -0.15539,2.27313 1.64656,4.42526 3.9043,4.69336 2.42969,0.42514 4.99161,-1.42526 5.22769,-3.90878 0.33176,-2.11155 -0.93314,-4.36431 -2.99527,-5.02677 -0.53535,-0.19118 -1.1062,-0.27964 -1.67383,-0.26367 z m -47.90625,3.8789 c 0.39616,0.0605 1.28633,0.51063 0.89844,0.98243 -0.54242,0.76014 -1.76564,0.60261 -2.14063,-0.23438 0.23433,-0.44682 0.72447,-0.78675 1.24219,-0.74805 z m 48.12891,0 c 0.39616,0.0605 1.28633,0.51063 0.89843,0.98243 -0.5434,0.76128 -1.7654,0.6009 -2.14258,-0.23438 0.23764,-0.44552 0.72497,-0.78716 1.24415,-0.74805 z" />
      <path
         id="path11"
         style="font-weight:900;font-family:'SauceCodePro Nerd Font';-inkscape-font-specification:'SauceCodePro Nerd Font Heavy';stroke:none"
         d="m 137.92773,493.03125 c -1.44531,3.8112 -2.89058,7.62241 -4.33593,11.43359 1.90039,0 3.80078,0 5.70117,0 0.38973,-1.03158 0.7808,-2.06267 1.17187,-3.09375 0,1.07813 0,2.15625 0,3.23438 2.9375,0 5.875,0 8.8125,0 0,-1.75456 0,-3.50912 0,-5.26367 -2.68099,0 -5.36198,0 -8.04296,0 0.96094,-2.53386 1.92188,-5.06771 2.88281,-7.60157 -1.90039,0 -3.80078,0 -5.70117,0 -0.16276,0.43034 -0.32553,0.86068 -0.48829,1.29102 z m 86.9336,1.41797 c 0.61849,1.63086 1.23698,3.26172 1.85547,4.89258 -2.68099,0 -5.36198,0 -8.04297,0 0,1.75455 0,3.50911 0,5.26367 2.9375,0 5.875,0 8.8125,0 0,-1.07813 0,-2.15625 0,-3.23438 0.39108,1.03108 0.78215,2.06216 1.17187,3.09375 1.90039,0 3.80078,0 5.70118,0 -1.60782,-4.24163 -3.21831,-8.48225 -4.82422,-12.72461 -1.90039,0 -3.80079,0 -5.70118,0 0.34245,0.903 0.6849,1.80599 1.02735,2.70899 z m -60.29297,1.29687 c 0,1.8698 0,3.73959 0,5.60938 2.91081,0 5.82161,0 8.73242,0 0,-2.53646 0,-5.07292 0,-7.60938 -2.91081,0 -5.82161,0 -8.73242,0 0,0.66667 0,1.33334 0,2 z m 36.09766,0 c 0,1.8698 0,3.73959 0,5.60938 2.9108,0 5.82161,0 8.73242,0 0,-2.53646 0,-5.07292 0,-7.60938 -2.91081,0 -5.82162,0 -8.73242,0 0,0.66667 0,1.33334 0,2 z m -13.86329,0.63477 c -2.08764,0.01 -3.66055,2.32862 -2.97405,4.28261 0.49934,1.92137 2.90711,2.88975 4.63616,1.98106 1.92681,-0.86945 2.43311,-3.68116 0.97142,-5.19582 -0.65226,-0.74735 -1.64868,-1.13166 -2.63353,-1.06785 z" />
      <path
         id="path12"
         style="font-weight:900;font-family:'SauceCodePro Nerd Font';-inkscape-font-specification:'SauceCodePro Nerd Font Heavy';stroke:none"
         d="m 149.96094,505.89453 c -1.44593,3.81056 -2.88966,7.62196 -4.33789,11.43164 1.90104,0 3.80208,0 5.70312,0 0.38895,-1.02968 0.77943,-2.05879 1.16992,-3.08789 0,1.07617 0,2.15235 0,3.22852 2.9375,0 5.875,0 8.8125,0 0,-1.75456 0,-3.50912 0,-5.26368 -2.68033,0 -5.36067,10e-6 -8.04101,0 0.9612,-2.53335 1.9218,-5.06692 2.88476,-7.5996 -1.90104,0 -3.80208,0 -5.70312,0 -0.16276,0.43033 -0.32552,0.86067 -0.48828,1.29101 z m 62.86718,1.41797 c 0.61849,1.63021 1.23698,3.26042 1.85547,4.89062 -2.68033,10e-6 -5.36067,0 -8.04101,0 0,1.75456 0,3.50912 0,5.26368 2.9375,0 5.875,0 8.8125,0 0,-1.07748 0,-2.15495 0,-3.23242 0.39127,1.03035 0.78252,2.06071 1.17187,3.09179 1.90104,0 3.80209,0 5.70313,0 -1.61055,-4.24044 -3.22155,-8.48071 -4.82813,-12.72265 -1.90104,0 -3.80208,0 -5.70312,0 0.3431,0.90299 0.6862,1.80599 1.02929,2.70898 z m -30.21093,2.5 c 0,1.06771 0,2.13542 0,3.20312 2.9108,0 5.82161,0 8.73242,0 0,-1.73437 0,-3.46874 0,-5.20312 -2.91081,0 -5.82162,0 -8.73242,0 0,0.66667 0,1.33333 0,2 z" />
      <path
         id="path13"
         style="font-weight:900;font-family:'SauceCodePro Nerd Font';-inkscape-font-specification:'SauceCodePro Nerd Font Heavy';stroke:none"
         d="m 162.26562,530.66602 c -2.15611,1.95862 -3.15064,5.08679 -2.42258,7.91917 0.46345,2.13073 2.0228,3.74318 3.53315,5.21132 0.45814,0.17577 0.98652,-0.67295 1.47292,-0.90934 0.9047,-0.70427 1.80901,-1.40905 2.71339,-2.11373 -0.83623,-1.10175 -2.15679,-1.9568 -2.46094,-3.37696 -0.25292,-1.21949 0.15825,-2.50116 1.09808,-3.32438 0.45559,-0.50711 0.91118,-1.01421 1.36677,-1.52132 -1.35084,-1.05153 -2.70121,-2.10366 -4.05274,-3.1543 -0.41601,0.42318 -0.83203,0.84636 -1.24805,1.26954 z m 46.7793,-0.17383 c -0.88023,0.68681 -1.76042,1.37369 -2.64062,2.06054 0.94403,1.21791 2.52368,2.2217 2.51414,3.92835 0.16462,1.30179 -0.69041,2.36026 -1.55086,3.21864 -0.18973,0.43766 -1.35333,0.96284 -0.64395,1.3197 1.244,0.96986 2.48739,1.94049 3.73145,2.91027 1.52304,-1.49122 3.13917,-3.08497 3.64325,-5.23572 0.76945,-2.84403 -0.19663,-6.01793 -2.36752,-7.9979 -0.42723,-0.43316 -0.85439,-0.8664 -1.28159,-1.29959 -0.4681,0.36524 -0.9362,0.73047 -1.4043,1.09571 z m -62.56445,9.4375 c 0,1.08789 0,2.17578 0,3.26367 2.9375,0 5.875,0 8.8125,0 0,-1.75456 0,-3.50912 0,-5.26367 -2.9375,0 -5.875,0 -8.8125,0 0,0.66666 0,1.33333 0,2 z m 72.19336,0 c 0,1.08789 0,2.17578 0,3.26367 2.9375,0 5.875,0 8.8125,0 0,-1.75456 0,-3.50912 0,-5.26367 -2.9375,0 -5.875,0 -8.8125,0 0,0.66666 0,1.33333 0,2 z" />
      <path
         id="path14"
         style="font-weight:900;font-family:'SauceCodePro Nerd Font';-inkscape-font-specification:'SauceCodePro Nerd Font Heavy';stroke:none"
         d="m 156.25586,543.52344 c -2.18505,1.97648 -3.17445,5.15428 -2.40881,8.0105 0.49167,2.13005 2.07575,3.72222 3.58805,5.19475 0.47489,-0.11478 0.98331,-0.72946 1.47115,-1.03728 0.88024,-0.68682 1.76042,-1.37369 2.64063,-2.06055 -0.84928,-1.12254 -2.23321,-1.99101 -2.47199,-3.46634 -0.24813,-1.23255 0.2416,-2.48307 1.174,-3.30354 0.43266,-0.48165 0.86532,-0.96331 1.29799,-1.44496 -1.34711,-1.05131 -2.69454,-2.1022 -4.04102,-3.1543 -0.41667,0.42057 -0.83333,0.84114 -1.25,1.26172 z m 58.80859,-0.16992 c -0.88209,0.68693 -1.7643,1.37372 -2.64648,2.06054 0.91803,1.19722 2.4593,2.16278 2.51181,3.81672 0.18104,1.25445 -0.5414,2.3565 -1.41237,3.17827 -0.22835,0.44127 -1.19597,0.94827 -0.94163,1.34663 1.30036,1.0123 2.60057,2.0248 3.90078,3.03729 1.51311,-1.49317 3.13048,-3.07821 3.63406,-5.22386 0.77674,-2.84774 -0.19034,-6.02737 -2.36417,-8.01173 -0.42654,-0.4319 -0.8531,-0.86377 -1.27965,-1.29566 -0.46745,0.36393 -0.9349,0.72786 -1.40235,1.0918 z" />
      <path
         id="path15"
         style="font-weight:900;font-family:'SauceCodePro Nerd Font';-inkscape-font-specification:'SauceCodePro Nerd Font Heavy';stroke:none"
         d="m 164.56836,560.06055 c 0,1.86979 0,3.73958 0,5.60937 2.91081,0 5.82161,0 8.73242,0 0,-2.53646 0,-5.07291 0,-7.60937 -2.91081,0 -5.82161,0 -8.73242,0 0,0.66666 0,1.33333 0,2 z m 36.09766,0 c 0,1.86979 0,3.73958 0,5.60937 2.9108,0 5.82161,0 8.73242,0 0,-2.53646 0,-5.07291 0,-7.60937 -2.91081,0 -5.82162,0 -8.73242,0 0,0.66666 0,1.33333 0,2 z" />
    </g>
    <g
       id="text1"
       style="font-size:10.0269px;font-family:Roboto;-inkscape-font-specification:Roboto;fill:#ffff00;stroke:#777777;stroke-dashoffset:11.3386"
       aria-label="^              ^&#10;   o       o  &#10;/_   =  .  =  _\&#10;  /_    -   _\&#10;         &#10;  _ (       ) _&#10;   (         )&#10;     =     = ">
      <path
         id="path1"
         style="font-weight:900;font-family:'SauceCodePro Nerd Font';-inkscape-font-specification:'SauceCodePro Nerd Font Heavy';stroke:none"
         d="m 134.30859,465.68945 c -0.87481,2.24617 -1.74959,4.49235 -2.625,6.73828 3.44792,0 6.89584,0 10.34375,0 -1.0402,-2.67088 -2.08263,-5.34091 -3.12304,-8.01171 -1.36654,0 -2.73308,0 -4.09961,0 -0.16537,0.42447 -0.33073,0.84895 -0.4961,1.27343 z m 90.24219,0 c -0.87482,2.24617 -1.74959,4.49235 -2.625,6.73828 3.44792,0 6.89583,0 10.34375,0 -1.04021,-2.67088 -2.08263,-5.34091 -3.12305,-8.01171 -1.36653,0 -2.73307,0 -4.0996,0 -0.16537,0.42447 -0.33073,0.84895 -0.4961,1.27343 z" />
      <path
         id="path2"
         style="font-weight:900;font-family:'SauceCodePro Nerd Font';-inkscape-font-specification:'SauceCodePro Nerd Font Heavy';stroke:none"
         d="m 154.7832,478.86719 c -2.38381,-0.007 -4.5184,2.10813 -4.46289,4.50586 -0.15538,2.27313 1.64657,4.42526 3.9043,4.69336 2.42561,0.42366 4.98587,-1.41899 5.22519,-3.89912 0.338,-2.11321 -0.92708,-4.37186 -2.99082,-5.03448 -0.53594,-0.19238 -1.10722,-0.28209 -1.67578,-0.26562 z m 48.12891,0 c -2.38381,-0.007 -4.5184,2.10813 -4.46289,4.50586 -0.15539,2.27313 1.64656,4.42526 3.9043,4.69336 2.42969,0.42514 4.99161,-1.42526 5.22769,-3.90878 0.33176,-2.11155 -0.93314,-4.36431 -2.99527,-5.02677 -0.53535,-0.19118 -1.1062,-0.27964 -1.67383,-0.26367 z m -47.90625,3.8789 c 0.39616,0.0605 1.28633,0.51063 0.89844,0.98243 -0.54242,0.76014 -1.76564,0.60261 -2.14063,-0.23438 0.23433,-0.44682 0.72447,-0.78675 1.24219,-0.74805 z m 48.12891,0 c 0.39616,0.0605 1.28633,0.51063 0.89843,0.98243 -0.5434,0.76128 -1.7654,0.6009 -2.14258,-0.23438 0.23764,-0.44552 0.72497,-0.78716 1.24415,-0.74805 z" />
      <path
         id="path3"
         style="font-weight:900;font-family:'SauceCodePro Nerd Font';-inkscape-font-specification:'SauceCodePro Nerd Font Heavy';stroke:none"
         d="m 135.92773,491.03125 c -1.44531,3.8112 -2.89058,7.62241 -4.33593,11.43359 1.90039,0 3.80078,0 5.70117,0 0.38973,-1.03158 0.7808,-2.06267 1.17187,-3.09375 0,1.07813 0,2.15625 0,3.23438 2.9375,0 5.875,0 8.8125,0 0,-1.75456 0,-3.50912 0,-5.26367 -2.68099,0 -5.36198,0 -8.04296,0 0.96094,-2.53386 1.92188,-5.06771 2.88281,-7.60157 -1.90039,0 -3.80078,0 -5.70117,0 -0.16276,0.43034 -0.32553,0.86068 -0.48829,1.29102 z m 86.9336,1.41797 c 0.61849,1.63086 1.23698,3.26172 1.85547,4.89258 -2.68099,0 -5.36198,0 -8.04297,0 0,1.75455 0,3.50911 0,5.26367 2.9375,0 5.875,0 8.8125,0 0,-1.07813 0,-2.15625 0,-3.23438 0.39108,1.03108 0.78215,2.06216 1.17187,3.09375 1.90039,0 3.80078,0 5.70118,0 -1.60782,-4.24163 -3.21831,-8.48225 -4.82422,-12.72461 -1.90039,0 -3.80078,0 -5.70118,0 0.34245,0.903 0.6849,1.80599 1.02735,2.70899 z m -60.29297,1.29687 c 0,1.8698 0,3.73959 0,5.60938 2.91081,0 5.82161,0 8.73242,0 0,-2.53646 0,-5.07292 0,-7.60938 -2.91081,0 -5.82161,0 -8.73242,0 0,0.66667 0,1.33334 0,2 z m 36.09766,0 c 0,1.8698 0,3.73959 0,5.60938 2.9108,0 5.82161,0 8.73242,0 0,-2.53646 0,-5.07292 0,-7.60938 -2.91081,0 -5.82162,0 -8.73242,0 0,0.66667 0,1.33334 0,2 z m -13.86329,0.63477 c -2.08764,0.01 -3.66055,2.32862 -2.97405,4.28261 0.49934,1.92137 2.90711,2.88975 4.63616,1.98106 1.92681,-0.86945 2.43311,-3.68116 0.97142,-5.19582 -0.65226,-0.74735 -1.64868,-1.13166 -2.63353,-1.06785 z" />
      <path
         id="path4"
         style="font-weight:900;font-family:'SauceCodePro Nerd Font';-inkscape-font-specification:'SauceCodePro Nerd Font Heavy';stroke:none"
         d="m 147.96094,503.89453 c -1.44593,3.81056 -2.88966,7.62196 -4.33789,11.43164 1.90104,0 3.80208,0 5.70312,0 0.38895,-1.02968 0.77943,-2.05879 1.16992,-3.08789 0,1.07617 0,2.15235 0,3.22852 2.9375,0 5.875,0 8.8125,0 0,-1.75456 0,-3.50912 0,-5.26368 -2.68033,0 -5.36067,10e-6 -8.04101,0 0.9612,-2.53335 1.9218,-5.06692 2.88476,-7.5996 -1.90104,0 -3.80208,0 -5.70312,0 -0.16276,0.43033 -0.32552,0.86067 -0.48828,1.29101 z m 62.86718,1.41797 c 0.61849,1.63021 1.23698,3.26042 1.85547,4.89062 -2.68033,10e-6 -5.36067,0 -8.04101,0 0,1.75456 0,3.50912 0,5.26368 2.9375,0 5.875,0 8.8125,0 0,-1.07748 0,-2.15495 0,-3.23242 0.39127,1.03035 0.78252,2.06071 1.17187,3.09179 1.90104,0 3.80209,0 5.70313,0 -1.61055,-4.24044 -3.22155,-8.48071 -4.82813,-12.72265 -1.90104,0 -3.80208,0 -5.70312,0 0.3431,0.90299 0.6862,1.80599 1.02929,2.70898 z m -30.21093,2.5 c 0,1.06771 0,2.13542 0,3.20312 2.9108,10e-6 5.82161,0 8.73242,0 0,-1.73437 0,-3.46874 0,-5.20312 -2.91081,0 -5.82162,0 -8.73242,0 0,0.66667 0,1.33333 0,2 z" />
      <path
         id="path5"
         style="font-weight:900;font-family:'SauceCodePro Nerd Font';-inkscape-font-specification:'SauceCodePro Nerd Font Heavy';stroke:none"
         d="m 160.26562,528.66602 c -2.15611,1.95862 -3.15064,5.08679 -2.42258,7.91917 0.46345,2.13073 2.0228,3.74318 3.53315,5.21132 0.45814,0.17577 0.98652,-0.67295 1.47292,-0.90934 0.9047,-0.70427 1.80901,-1.40905 2.71339,-2.11373 -0.83623,-1.10175 -2.15679,-1.9568 -2.46094,-3.37696 -0.25292,-1.21949 0.15825,-2.50116 1.09808,-3.32438 0.45559,-0.50711 0.91118,-1.01421 1.36677,-1.52132 -1.35084,-1.05153 -2.70121,-2.10366 -4.05274,-3.1543 -0.41601,0.42318 -0.83203,0.84636 -1.24805,1.26954 z m 46.7793,-0.17383 c -0.88023,0.68681 -1.76042,1.37369 -2.64062,2.06054 0.94403,1.21791 2.52368,2.2217 2.51414,3.92835 0.16462,1.30179 -0.69041,2.36026 -1.55086,3.21864 -0.18973,0.43766 -1.35333,0.96284 -0.64395,1.3197 1.244,0.96986 2.48739,1.94049 3.73145,2.91027 1.52304,-1.49122 3.13917,-3.08497 3.64325,-5.23572 0.76945,-2.84403 -0.19663,-6.01793 -2.36752,-7.9979 -0.42723,-0.43316 -0.85439,-0.8664 -1.28159,-1.29959 -0.4681,0.36524 -0.9362,0.73047 -1.4043,1.09571 z m -62.56445,9.4375 c 0,1.08789 0,2.17578 0,3.26367 2.9375,0 5.875,0 8.8125,0 0,-1.75456 0,-3.50912 0,-5.26367 -2.9375,0 -5.875,0 -8.8125,0 0,0.66666 0,1.33333 0,2 z m 72.19336,0 c 0,1.08789 0,2.17578 0,3.26367 2.9375,0 5.875,0 8.8125,0 0,-1.75456 0,-3.50912 0,-5.26367 -2.9375,0 -5.875,0 -8.8125,0 0,0.66666 0,1.33333 0,2 z" />
      <path
         id="path6"
         style="font-weight:900;font-family:'SauceCodePro Nerd Font';-inkscape-font-specification:'SauceCodePro Nerd Font Heavy';stroke:none"
         d="m 154.25586,541.52344 c -2.18505,1.97648 -3.17445,5.15428 -2.40881,8.0105 0.49167,2.13005 2.07575,3.72222 3.58805,5.19475 0.47489,-0.11478 0.98331,-0.72946 1.47115,-1.03728 0.88024,-0.68682 1.76042,-1.37369 2.64063,-2.06055 -0.84928,-1.12254 -2.23321,-1.99101 -2.47199,-3.46634 -0.24813,-1.23255 0.2416,-2.48307 1.174,-3.30354 0.43266,-0.48165 0.86532,-0.96331 1.29799,-1.44496 -1.34711,-1.05131 -2.69454,-2.1022 -4.04102,-3.1543 -0.41667,0.42057 -0.83333,0.84114 -1.25,1.26172 z m 58.80859,-0.16992 c -0.88209,0.68693 -1.7643,1.37372 -2.64648,2.06054 0.91803,1.19722 2.4593,2.16278 2.51181,3.81672 0.18104,1.25445 -0.5414,2.3565 -1.41237,3.17827 -0.22835,0.44127 -1.19597,0.94827 -0.94163,1.34663 1.30036,1.0123 2.60057,2.0248 3.90078,3.03729 1.51311,-1.49317 3.13048,-3.07821 3.63406,-5.22386 0.77674,-2.84774 -0.19034,-6.02737 -2.36417,-8.01173 -0.42654,-0.4319 -0.8531,-0.86377 -1.27965,-1.29566 -0.46745,0.36393 -0.9349,0.72786 -1.40235,1.0918 z" />
      <path
         id="path7"
         style="font-weight:900;font-family:'SauceCodePro Nerd Font';-inkscape-font-specification:'SauceCodePro Nerd Font Heavy';stroke:none"
         d="m 162.56836,558.06055 c 0,1.86979 0,3.73958 0,5.60937 2.91081,0 5.82161,0 8.73242,0 0,-2.53646 0,-5.07291 0,-7.60937 -2.91081,0 -5.82161,0 -8.73242,0 0,0.66666 0,1.33333 0,2 z m 36.09766,0 c 0,1.86979 0,3.73958 0,5.60937 2.9108,0 5.82161,0 8.73242,0 0,-2.53646 0,-5.07291 0,-7.60937 -2.91081,0 -5.82162,0 -8.73242,0 0,0.66666 0,1.33333 0,2 z" />
    </g>
  </g>
</svg>
